<svg width="36" height="36" viewBox="0 0 36 36" fill="none" xmlns="http://www.w3.org/2000/svg">
<path d="M34.7552 14.4139L31.2285 13.957C30.9646 13.079 30.6124 12.23 30.1775 11.4231L32.3073 8.57082C32.5087 8.30433 32.607 7.97394 32.5841 7.64058C32.5612 7.30722 32.4187 6.99339 32.1828 6.75697L29.1125 3.71082C28.8764 3.47468 28.5629 3.332 28.2299 3.30909C27.897 3.28619 27.567 3.38461 27.3008 3.5862L24.4379 5.7739C23.6581 5.36531 22.8436 5.02705 22.0038 4.76313L21.5613 1.21851C21.5205 0.88079 21.357 0.569911 21.1019 0.34518C20.8468 0.120448 20.518 -0.00240725 20.1782 4.98491e-05H15.7664C15.4288 -0.00281748 15.1017 0.1181 14.8469 0.340002C14.5922 0.561904 14.4273 0.869456 14.3834 1.20466L13.9132 4.76313C13.0416 5.03 12.1984 5.38248 11.3961 5.81543L8.57475 3.65543C8.30751 3.45002 7.97457 3.34933 7.63843 3.37227C7.30229 3.39522 6.98608 3.54022 6.74917 3.78005L3.70653 6.92313C3.48705 7.1578 3.35597 7.46161 3.33578 7.78246C3.3156 8.10332 3.40756 8.4212 3.59589 8.68159L5.7534 11.4508C5.32094 12.2541 4.96887 13.0982 4.7023 13.9708L1.20327 14.4139C0.868451 14.4578 0.561255 14.6229 0.339609 14.878C0.117964 15.133 -0.00281422 15.4604 4.97915e-05 15.7985V20.2293C-0.00240446 20.5695 0.120309 20.8986 0.344781 21.154C0.569253 21.4094 0.879772 21.5731 1.2171 21.6139L4.67464 22.0431C4.94111 22.9247 5.29315 23.778 5.72574 24.5908L3.63738 27.4431C3.44157 27.7101 3.34785 28.0385 3.37322 28.3688C3.3986 28.6991 3.54139 29.0093 3.77568 29.2431L6.91513 32.2893C7.15127 32.5254 7.46474 32.6681 7.79771 32.691C8.13069 32.7139 8.4607 32.6155 8.72688 32.4139L11.4929 30.2816C12.2784 30.6985 13.103 31.0371 13.9547 31.2924L14.4111 34.7954C14.455 35.1306 14.6198 35.4382 14.8746 35.6601C15.1294 35.882 15.4564 36.0029 15.7941 36H20.2197C20.5574 36.0029 20.8845 35.882 21.1392 35.6601C21.394 35.4382 21.5589 35.1306 21.6028 34.7954L22.073 31.2785C22.9389 31.0139 23.7772 30.6661 24.5762 30.24L27.4529 32.3585C27.7196 32.5545 28.0476 32.6484 28.3775 32.623C28.7074 32.5976 29.0172 32.4546 29.2508 32.22L32.2935 29.1462C32.5293 28.9098 32.6719 28.596 32.6947 28.2626C32.7176 27.9292 32.6193 27.5988 32.4179 27.3324L30.2743 24.5631C30.6953 23.7723 31.038 22.9422 31.2977 22.0847L34.7967 21.6277C35.1315 21.5838 35.4387 21.4187 35.6604 21.1637C35.882 20.9086 36.0028 20.5812 36 20.2431V15.7847C35.9982 15.4426 35.8701 15.1133 35.6403 14.8602C35.4105 14.6071 35.0952 14.4481 34.7552 14.4139ZM33.1924 18.997L29.97 19.3847C29.691 19.4228 29.4302 19.5453 29.2226 19.7359C29.015 19.9264 28.8705 20.1758 28.8083 20.4508C28.5386 21.6506 28.0712 22.7971 27.4253 23.8431C27.2766 24.0833 27.2048 24.3632 27.2197 24.6454C27.2345 24.9275 27.3352 25.1984 27.5082 25.4216L29.4721 28.0108L28.0891 29.3954L25.4337 27.4431C25.205 27.2884 24.9353 27.2057 24.6592 27.2057C24.3832 27.2057 24.1134 27.2884 23.8847 27.4431C22.8327 28.0952 21.6775 28.5634 20.4687 28.8277C20.194 28.89 19.9449 29.0347 19.7546 29.2426C19.5643 29.4504 19.4419 29.7115 19.4038 29.9908L18.975 33.2308H16.9835L16.5962 30.0185C16.5608 29.7367 16.4396 29.4726 16.2491 29.262C16.0586 29.0515 15.808 28.9047 15.5313 28.8416C14.3298 28.5817 13.183 28.1131 12.1429 27.457C11.9045 27.3112 11.6276 27.2411 11.3487 27.2559C11.0697 27.2707 10.8018 27.3698 10.5801 27.54L7.95239 29.4785L6.56938 28.0939L8.49177 25.4493C8.64636 25.2203 8.72896 24.9503 8.72896 24.6739C8.72896 24.3975 8.64636 24.1275 8.49177 23.8985C7.84158 22.8347 7.3741 21.6693 7.10875 20.4508C7.04657 20.1758 6.90201 19.9264 6.69441 19.7359C6.48681 19.5453 6.22605 19.4228 5.94702 19.3847L2.76608 18.997V17.0031L5.97468 16.6154C6.25371 16.5773 6.51447 16.4548 6.72207 16.2642C6.92967 16.0737 7.07423 15.8243 7.13641 15.5493C7.42546 14.3272 7.91626 13.1619 8.58858 12.1016C8.74544 11.86 8.82308 11.5753 8.81068 11.2874C8.79829 10.9995 8.69647 10.7227 8.51943 10.4954L6.52788 7.94774L7.9109 6.56313L10.4695 8.58466C10.6939 8.7558 10.9652 8.85415 11.247 8.86652C11.5288 8.8789 11.8076 8.8047 12.0461 8.6539C13.1066 7.99889 14.2714 7.53058 15.4898 7.26928C15.7802 7.21151 16.0445 7.06195 16.2436 6.84261C16.4428 6.62327 16.5664 6.34573 16.5962 6.05082L16.9835 2.76928H18.9612L19.3623 6.03697C19.3986 6.32067 19.5219 6.58613 19.715 6.79687C19.9082 7.00762 20.1618 7.1533 20.441 7.2139C21.6357 7.48189 22.7766 7.95001 23.8156 8.59851C24.0526 8.74626 24.3288 8.81872 24.6077 8.80637C24.8866 8.79401 25.1553 8.69741 25.3784 8.52928L28.0199 6.52159L29.403 7.9062L27.4391 10.5231C27.2681 10.7478 27.1699 11.0194 27.1576 11.3015C27.1452 11.5836 27.2193 11.8628 27.3699 12.1016C28.0458 13.1601 28.5368 14.3259 28.8221 15.5493C28.8867 15.8217 29.0324 16.0681 29.2398 16.256C29.4472 16.4439 29.7066 16.5644 29.9838 16.6016L33.2201 17.0308L33.1924 18.997Z" fill="white"/>
</svg>
