<svg width="43" height="36" viewBox="0 0 43 36" fill="none" xmlns="http://www.w3.org/2000/svg">
<path d="M36.3708 5.99062L32.8174 1.52813C32.0309 0.549208 30.9684 -1.08619e-05 29.8611 1.61112e-10H12.9299C11.825 1.61112e-10 10.7575 0.553125 9.97362 1.52813L6.42014 5.99062H3.00467e-05V29.9625H2.38889C3.70278 29.9625 4.76285 28.6312 4.77032 26.9906H5.44966L11.7653 34.1531C14.0721 36.5062 17.2747 36.5625 19.6486 34.5094C20.5818 35.5219 21.5896 36 22.7168 36C24.0755 36 25.3521 35.3063 26.3599 33.75C28.0097 34.5656 29.9582 33.9937 31.1377 32.175L33.0936 29.1469C33.5116 28.5 33.7729 27.7594 33.9073 26.9906H38.2297C38.2372 28.6312 39.3047 29.9625 40.6111 29.9625V5.50312L36.3708 5.99062ZM1.19445 26.9625C0.537506 26.9625 6.14162e-06 26.2875 6.14162e-06 25.4625C6.14162e-06 24.6375 0.537506 23.9625 1.19445 23.9625C1.85139 23.9625 2.38889 24.6375 2.38889 25.4625C2.38889 26.2969 1.85139 26.9625 1.19445 26.9625ZM30.309 26.3156L28.3606 29.3344C28.1516 29.6531 27.7783 29.7094 27.517 29.4469L25.7328 27.6281L23.4932 31.05C23.0453 31.7344 22.3734 31.5 22.1495 31.275L19.4023 28.3219L18.2377 30.1219C17.2 31.725 15.3113 31.9687 14.1094 30.7406L6.84566 22.4906H4.77778V10.4812H7.90573L12.5118 4.70625C12.6611 4.63125 12.788 4.56562 12.9373 4.49062H17.1701L14.2811 7.81875C12.0863 10.3406 11.9594 14.5969 13.9526 17.3156C15.0575 18.8344 18.5214 21.1781 21.5299 17.7281L22.142 17.025L30.2194 25.2562C30.4733 25.5187 30.5106 25.9969 30.309 26.3156ZM38.2222 22.4906H33.0562C32.8845 22.2281 32.6904 21.9844 32.4814 21.7688L24.8146 13.95L25.7477 12.8812C26.233 12.3187 26.2703 11.3719 25.8224 10.7625L25.0087 9.66563C24.5608 9.05625 23.8068 9.01875 23.3215 9.57187L19.2007 14.3156C18.4915 15.1312 17.2821 15.1969 16.6177 14.3156C15.9234 13.3875 15.9832 11.9625 16.7073 11.1375L21.6045 5.50312C22.1569 4.86562 22.8736 4.51875 23.6201 4.51875L29.8686 4.5C30.0253 4.5 30.1747 4.575 30.2792 4.71562L34.8852 10.4906H38.2222V22.4906ZM41.8056 26.9625C41.1486 26.9625 40.6111 26.2875 40.6111 25.4625C40.6111 24.6375 41.1486 23.9625 41.8056 23.9625C42.4625 23.9625 43 24.6375 43 25.4625C43 26.2969 42.4625 26.9625 41.8056 26.9625Z" fill="white"/>
</svg>
