<svg width="36" height="32" viewBox="0 0 36 32" fill="none" xmlns="http://www.w3.org/2000/svg">
<path d="M22.5 21.375C22.5 21.9966 21.9966 22.5 21.375 22.5H14.625C14.0034 22.5 13.5 21.9966 13.5 21.375V18H0V28.125C0 29.925 1.575 31.5 3.375 31.5H32.625C34.425 31.5 36 29.925 36 28.125V18H22.5V21.375ZM32.625 6.75H27V3.375C27 1.575 25.425 0 23.625 0H12.375C10.575 0 9 1.575 9 3.375V6.75H3.375C1.575 6.75 0 8.325 0 10.125V15.75H36V10.125C36 8.325 34.425 6.75 32.625 6.75ZM22.5 6.75H13.5V4.5H22.5V6.75Z" fill="white"/>
</svg>
