<svg width="221" height="31" viewBox="0 0 221 31" fill="none" xmlns="http://www.w3.org/2000/svg">
<path d="M22.2344 1.44531V19.9219C22.2344 21.4062 22.0065 22.7865 21.5508 24.0625C21.1081 25.3385 20.4245 26.4453 19.5 27.3828C18.5885 28.3203 17.4427 29.056 16.0625 29.5898C14.6823 30.1237 13.0612 30.3906 11.1992 30.3906C9.44141 30.3906 7.88542 30.1432 6.53125 29.6484C5.1901 29.1406 4.0638 28.4245 3.15234 27.5C2.25391 26.5755 1.57031 25.4688 1.10156 24.1797C0.632812 22.8776 0.398438 21.4323 0.398438 19.8438V1.44531H6.43359V19.3945C6.43359 20.4492 6.53776 21.3542 6.74609 22.1094C6.95443 22.8516 7.26042 23.4635 7.66406 23.9453C8.08073 24.4141 8.59505 24.7591 9.20703 24.9805C9.81901 25.2018 10.5352 25.3125 11.3555 25.3125C13.0612 25.3125 14.2917 24.8177 15.0469 23.8281C15.8151 22.8385 16.1992 21.3477 16.1992 19.3555V1.44531H22.2344ZM39.9102 30H26.9219V26.5625L30.3984 24.9609V6.48438L26.9219 4.88281V1.44531H39.9102V4.88281L36.4336 6.48438V24.9609L39.9102 26.5625V30Z" fill="#EDF4F9"/>
<path d="M71.6484 30H55.2031V1.44531H71.6484V6.40625H61.2578V12.6758H70.9258V17.6367H61.2578V25H71.6484V30ZM92.3125 1.44531H98.4258L89.5195 30H82.918L74.0312 1.44531H80.1445L84.9883 18.6328C85.0534 18.8542 85.138 19.2253 85.2422 19.7461C85.3594 20.2669 85.4766 20.8398 85.5938 21.4648C85.724 22.0898 85.8477 22.7148 85.9648 23.3398C86.082 23.9648 86.1732 24.4922 86.2383 24.9219C86.3034 24.4922 86.3945 23.9648 86.5117 23.3398C86.6289 22.7148 86.7526 22.0964 86.8828 21.4844C87.013 20.8594 87.1367 20.2865 87.2539 19.7656C87.3841 19.2448 87.4818 18.8672 87.5469 18.6328L92.3125 1.44531ZM125.555 15.6836C125.555 17.8841 125.294 19.8893 124.773 21.6992C124.266 23.5091 123.484 25.0586 122.43 26.3477C121.375 27.6367 120.04 28.6328 118.426 29.3359C116.824 30.0391 114.93 30.3906 112.742 30.3906C110.555 30.3906 108.654 30.0391 107.039 29.3359C105.438 28.6328 104.109 27.6367 103.055 26.3477C102.013 25.0586 101.232 23.5091 100.711 21.6992C100.203 19.8763 99.9492 17.8581 99.9492 15.6445C99.9492 13.431 100.203 11.4258 100.711 9.62891C101.232 7.81901 102.02 6.27604 103.074 5C104.129 3.72396 105.457 2.74089 107.059 2.05078C108.673 1.34766 110.581 0.996094 112.781 0.996094C114.969 0.996094 116.863 1.34766 118.465 2.05078C120.066 2.74089 121.388 3.73047 122.43 5.01953C123.484 6.29557 124.266 7.83854 124.773 9.64844C125.294 11.4453 125.555 13.457 125.555 15.6836ZM106.18 15.6836C106.18 17.181 106.31 18.5286 106.57 19.7266C106.831 20.9115 107.228 21.9206 107.762 22.7539C108.309 23.5742 108.992 24.2057 109.812 24.6484C110.633 25.0911 111.609 25.3125 112.742 25.3125C113.901 25.3125 114.891 25.0911 115.711 24.6484C116.544 24.2057 117.221 23.5742 117.742 22.7539C118.276 21.9206 118.667 20.9115 118.914 19.7266C119.174 18.5286 119.305 17.181 119.305 15.6836C119.305 14.1862 119.174 12.8451 118.914 11.6602C118.667 10.4622 118.276 9.44661 117.742 8.61328C117.221 7.77995 116.551 7.14193 115.73 6.69922C114.91 6.25651 113.927 6.03516 112.781 6.03516C111.648 6.03516 110.665 6.25651 109.832 6.69922C108.999 7.14193 108.309 7.77995 107.762 8.61328C107.228 9.44661 106.831 10.4622 106.57 11.6602C106.31 12.8451 106.18 14.1862 106.18 15.6836ZM131.453 30V1.44531H137.508V25H147.898V30H131.453ZM165.945 1.44531H172.059L163.152 30H156.551L147.664 1.44531H153.777L158.621 18.6328C158.686 18.8542 158.771 19.2253 158.875 19.7461C158.992 20.2669 159.109 20.8398 159.227 21.4648C159.357 22.0898 159.48 22.7148 159.598 23.3398C159.715 23.9648 159.806 24.4922 159.871 24.9219C159.936 24.4922 160.027 23.9648 160.145 23.3398C160.262 22.7148 160.385 22.0964 160.516 21.4844C160.646 20.8594 160.77 20.2865 160.887 19.7656C161.017 19.2448 161.115 18.8672 161.18 18.6328L165.945 1.44531ZM192.117 30H175.672V1.44531H192.117V6.40625H181.727V12.6758H191.395V17.6367H181.727V25H192.117V30ZM220.184 15.4492C220.184 17.8581 219.852 19.974 219.188 21.7969C218.536 23.6068 217.586 25.1237 216.336 26.3477C215.099 27.5586 213.576 28.4701 211.766 29.082C209.969 29.694 207.918 30 205.613 30H198.094V1.44531H206.453C208.549 1.44531 210.438 1.74479 212.117 2.34375C213.81 2.94271 215.255 3.83464 216.453 5.01953C217.651 6.19141 218.569 7.64974 219.207 9.39453C219.858 11.1393 220.184 13.1576 220.184 15.4492ZM214.051 15.6055C214.051 14.0169 213.888 12.6497 213.562 11.5039C213.25 10.3451 212.788 9.38802 212.176 8.63281C211.577 7.8776 210.835 7.31771 209.949 6.95312C209.077 6.58854 208.074 6.40625 206.941 6.40625H204.148V25H206.375C208.927 25 210.841 24.2188 212.117 22.6562C213.406 21.0938 214.051 18.7435 214.051 15.6055Z" fill="#FFB800"/>
</svg>
